<svg xmlns="http://www.w3.org/2000/svg" viewBox="0 0 22 20.306"><defs><style>.a{fill:#e16868;}</style></defs><path class="a" d="M-868.211-399.394a2.178,2.178,0,0,1-1.291-.418c-1.556-1.106-7.668-6.185-9.29-10.858a8.046,8.046,0,0,1-.331-1.253v-.011c0-.034-.011-.056-.011-.09v-.023a6.659,6.659,0,0,1-.066-.926v-.079a6.5,6.5,0,0,1,6.311-6.648,6.21,6.21,0,0,1,4.689,2.2,6.21,6.21,0,0,1,4.689-2.2,6.488,6.488,0,0,1,6.311,6.648v.079a6.773,6.773,0,0,1-.066.926v.023c0,.034-.011.056-.011.09v.023a7.2,7.2,0,0,1-.32,1.253c-1.622,4.673-7.745,9.752-9.29,10.858A2.526,2.526,0,0,1-868.211-399.394Zm-8.749-12.969.011.068a4.438,4.438,0,0,0,.221.858c0,.011,0,.011.011.023,1.28,3.7,6.355,8.262,8.484,9.763a.049.049,0,0,0,.055,0c2.118-1.513,7.194-6.061,8.484-9.763a.011.011,0,0,1,.011-.011,4.328,4.328,0,0,0,.221-.846l.011-.079v-.011a3,3,0,0,0,.044-.542v-.124a4.267,4.267,0,0,0-4.1-4.4,4.071,4.071,0,0,0-3.685,2.461,1.1,1.1,0,0,1-1,.643,1.109,1.109,0,0,1-1-.643,4.071,4.071,0,0,0-3.685-2.461,4.264,4.264,0,0,0-4.1,4.391v.124a4.866,4.866,0,0,0,.044.542c-.011,0-.011,0-.011.011Z" transform="translate(879.2 419.7)"/></svg>